PathFileType	4	(X/Y/Z)	/Users/niels/Desktop/University/Third Semester/Perception and Action/Exam/Gymnastics Motion Tracking/Code for Gym Tracking/Analyzed Data/Webcam_Backflip/id8_5_baseline_Sports2D/id8_5_baseline_Sports2D_px_person00.trc
DataRate	CameraRate	NumFrames	NumMarkers	Units	OrigDataRate	OrigDataStartFrame	OrigNumFrames
29.8125	29.8125	11	22	m	29.8125	0	160
Frame#	Time	Hip			RHip			RKnee			RAnkle			RBigToe			RSmallToe			RHeel			LHip			LKnee			LAnkle			LBigToe			LSmallToe			LHeel			Neck			Head			Nose			RShoulder			RElbow			RWrist			LShoulder			LElbow			LWrist		
		X1	Y1	Z1	X2	Y2	Z2	X3	Y3	Z3	X4	Y4	Z4	X5	Y5	Z5	X6	Y6	Z6	X7	Y7	Z7	X8	Y8	Z8	X9	Y9	Z9	X10	Y10	Z10	X11	Y11	Z11	X12	Y12	Z12	X13	Y13	Z13	X14	Y14	Z14	X15	Y15	Z15	X16	Y16	Z16	X17	Y17	Z17	X18	Y18	Z18	X19	Y19	Z19	X20	Y20	Z20	X21	Y21	Z21	X22	Y22	Z22
0	0.0	0.9865893608841935	-0.5772596357984427	0.0	0.987926308452935	-0.5732545388708594	0.0	0.9852786949477992	-0.6761006423978912	0.0	0.9745840732881103	-0.7749444113679548	0.0	1.002641442606026	-0.792305199326193	0.0	0.9973033476497716	-0.7949753562244092	0.0	0.9652379411563087	-0.7883034561804638	0.0	0.9865845577715577	-0.573262596890255	0.0	0.9839403201518305	-0.6747695087374107	0.0	0.9745883613617528	-0.7682697106430052	0.0	1.0026390912319036	-0.7882989604881216	0.0	0.9986178725116456	-0.7842893918900623	0.0	0.9665624526690684	-0.7816215883458436	0.0	1.0106585067456761	-0.450367612338557	0.0	1.0267088002891562	-0.3849265346878152	0.0	1.0427271902637658	-0.42232225062169865	0.0	1.013337605573492	-0.45971803017435076	0.0	1.0694262230886362	-0.4970980188117419	0.0	1.1215040703857029	-0.5277886694715019	0.0	0.9999763199234489	-0.4570449074392043	0.0	1.0600723812048098	-0.4984455652152618	0.0	1.1188386611981465	-0.5264590938779307	0.0
1	0.03354297693920335	0.9873714298905598	-0.5798469452122793	0.0	0.9887564331923048	-0.5760384108735062	0.0	0.9853633027987675	-0.6776023610250125	0.0	0.9744841263354657	-0.7764259920489092	0.0	1.0051685440139317	-0.7942928139034847	0.0	0.9987825425702114	-0.7973264066273189	0.0	0.9656621733471262	-0.7901422378889135	0.0	0.9870793351961265	-0.5757332625962025	0.0	0.9844833900125989	-0.6765876047307843	0.0	0.9746646657713662	-0.7701519906676749	0.0	1.0029105287631392	-0.790250376717898	0.0	0.998839821942118	-0.7872236244774868	0.0	0.9663787136180063	-0.7838675033701851	0.0	1.0122084908848232	-0.45166805647453273	0.0	1.0260880903603824	-0.3870636302938519	0.0	1.043295274994144	-0.42378211702235835	0.0	1.0138948261611787	-0.46224419662265664	0.0	1.0609640525492623	-0.5072709127247094	0.0	1.1078850882599627	-0.546349100127422	0.0	1.0011505037657789	-0.4605561214702017	0.0	1.0513225841730522	-0.5084889519713862	0.0	1.1028844890575076	-0.5440679606748158	0.0
2	0.0670859538784067	0.9882783905643638	-0.5821506240734577	0.0	0.9898093742663121	-0.5786407128364851	0.0	0.9856845934136973	-0.67911097177261	0.0	0.9746040922370054	-0.7778704399138007	0.0	1.0075846691958692	-0.7963184987236549	0.0	1.0002163737357	-0.7995544854639006	0.0	0.966219329241455	-0.7919674620425947	0.0	0.9877538342057701	-0.5780351646121862	0.0	0.9851342496015065	-0.6784046458378175	0.0	0.9749143698616479	-0.7720392069353825	0.0	1.0034608327869348	-0.7922906202185367	0.0	0.9991614918986831	-0.7900847291707515	0.0	0.9662586571381878	-0.785977241216017	0.0	1.0136986094820328	-0.4527369238420567	0.0	1.026034085252848	-0.389124833647066	0.0	1.0439255372759355	-0.42516349068079323	0.0	1.0142927072772587	-0.46447987956820136	0.0	1.0520688556669053	-0.51639281720127	0.0	1.0932314597811426	-0.563099227672664	0.0	1.002565531046103	-0.4636113699527043	0.0	1.042259904700257	-0.5174432446737018	0.0	1.086252568585594	-0.5599391857562569	0.0
3	0.10062893081761004	0.9893861300399442	-0.5838597768368177	0.0	0.991175501705445	-0.5808177638781037	0.0	0.9863569099823057	-0.6804615258975171	0.0	0.9750943751151419	-0.779151758515392	0.0	1.0097393724007633	-0.79833507058552	0.0	1.0015496131497605	-0.8015432701465068	0.0	0.9670422664692859	-0.7936516929556525	0.0	0.9886940232998641	-0.5799679529322688	0.0	0.9859584643891999	-0.6800412675184508	0.0	0.975467270539501	-0.7737719169244659	0.0	1.0044442726902145	-0.7943407372258269	0.0	0.9997149438798519	-0.7926954859895192	0.0	0.9663417398799183	-0.7877656859048733	0.0	1.015114383981475	-0.45336678479728393	0.0	1.0269497405172308	-0.39096639519153753	0.0	1.044729768064401	-0.42629641369649246	0.0	1.0144682148049056	-0.4660981300282005	0.0	1.0425014232448955	-0.523425833424866	0.0	1.0768145145094765	-0.5763726498990066	0.0	1.0043399452574655	-0.46582326957069947	0.0	1.0328395611456562	-0.5242242410330916	0.0	1.0686984845890506	-0.5724876563672099	0.0
4	0.1341719077568134	0.9906913753487211	-0.5847341847798031	0.0	0.992758760263316	-0.5823229111036288	0.0	0.9873274365978636	-0.6813802330936874	0.0	0.9759885694691914	-0.7800239235054953	0.0	1.0114496822375239	-0.800176569646906	0.0	1.0026712049764401	-0.8031702678740982	0.0	0.9682229706181251	-0.7949362779808614	0.0	0.989863458945056	-0.5813446155225384	0.0	0.9869384987257339	-0.6812049883417239	0.0	0.9763594045207051	-0.7750007336492477	0.0	1.005731654755553	-0.7961178579239863	0.0	1.0005628490854115	-0.7947682840812783	0.0	0.966754874395427	-0.7889639471280555	0.0	1.0164981861726625	-0.45342638024472365	0.0	1.0290030651485964	-0.39235081302191	0.0	1.0458556620547166	-0.4269471737738617	0.0	1.014513486714984	-0.46679372602660557	0.0	1.032357136550185	-0.5275226573972225	0.0	1.0585074431814805	-0.5849221173737217	0.0	1.0064555689301617	-0.4669255706404317	0.0	1.0234527437139245	-0.5279194926728792	0.0	1.050617474772605	-0.5805458129240786	0.0
5	0.16771488469601675	0.9920480903420942	-0.5846120831631404	0.0	0.9942973929649161	-0.5828977575611535	0.0	0.9884146971470498	-0.6816117369809335	0.0	0.9772399427924745	-0.7801616763557329	0.0	1.0125816487967547	-0.8015654167351534	0.0	1.0034547872427169	-0.8042643603729677	0.0	0.969779296690099	-0.795489679944088	0.0	0.9910583016148455	-0.5819080246121102	0.0	0.9879551979974552	-0.6815984216860197	0.0	0.9775008001565972	-0.7752991389810406	0.0	1.0069306270860316	-0.797214199485331	0.0	1.0015796502299454	-0.7959624836110237	0.0	0.9674939941008805	-0.7892466628072305	0.0	1.0179394926625842	-0.4528433703962629	0.0	1.032144253956792	-0.39295579327802865	0.0	1.0474063517075336	-0.42685500897651435	0.0	1.01469842491651	-0.46635731884107984	0.0	1.0220470509984476	-0.5281785720359219	0.0	1.038832768682507	-0.5880174119117112	0.0	1.0087766848250868	-0.46672616011540285	0.0	1.0146572197666328	-0.5279162953354762	0.0	1.032727170897939	-0.583449892907453	0.0
6	0.20125786163522008	0.9931490147331808	-0.5833311914746333	0.0	0.995447734203379	-0.5822158827040073	0.0	0.9893996826269773	-0.6809569927266604	0.0	0.9787832829568168	-0.7792968882997702	0.0	1.0131483238056773	-0.8021745939501888	0.0	1.003894710298165	-0.8046055617794953	0.0	0.9716578056607741	-0.7950267488864761	0.0	0.9919493192940343	-0.5812587259012764	0.0	0.988832335625664	-0.6809610824640118	0.0	0.9787211260908096	-0.7743912968159241	0.0	1.0076803372503786	-0.7972659640592105	0.0	1.0025424399827103	-0.7960063670209174	0.0	0.9684471115182549	-0.7884043696072649	0.0	1.0195262819747264	-0.45155461536551383	0.0	1.0361092111190406	-0.39249187216593623	0.0	1.0493679976214005	-0.42579334698981225	0.0	1.015343124580607	-0.46471268625231144	0.0	1.0121614450890468	-0.5253395255854362	0.0	1.018835158939957	-0.5855457136964562	0.0	1.0110798780434682	-0.46509412614153306	0.0	1.0067908146978923	-0.5240830183892177	0.0	1.0156589396912787	-0.5811150949399967	0.0
7	0.23480083857442344	0.9936072768921432	-0.5806745547147416	0.0	0.9958458599803344	-0.5799116190696421	0.0	0.9901173931685007	-0.6792194569719142	0.0	0.9805326386778361	-0.7773018258469566	0.0	1.0133568886175996	-0.8016584853630664	0.0	1.0041688963795603	-0.8039403883452234	0.0	0.9737108442228707	-0.7933320809634116	0.0	0.9921922303246052	-0.5789417831569171	0.0	0.9894301765380922	-0.679035669008034	0.0	0.9798701701267716	-0.7722547222107334	0.0	1.0079487846541766	-0.7960203205889209	0.0	1.0033781002578195	-0.7947142802347973	0.0	0.9694897358303757	-0.7864216011725458	0.0	1.0212855561898506	-0.4494709145756366	0.0	1.0404409853415002	-0.39085334630009383	0.0	1.0516437596652979	-0.4236970093979993	0.0	1.0166082459060137	-0.4618976917201752	0.0	1.0032518154614531	-0.519428226301625	0.0	0.9997809988922284	-0.5781130630555776	0.0	1.0131380023995327	-0.4620359123690014	0.0	0.9998983238199947	-0.5169347337114194	0.0	0.9998182988511302	-0.5740775794829472	0.0
8	0.2683438155136268	0.9931050385398544	-0.5764956291433213	0.0	0.9951742567763933	-0.5758210293300845	0.0	0.9904933588953979	-0.676251175417545	0.0	0.9823429635056756	-0.774185633027679	0.0	1.0135133311810836	-0.7997481208552095	0.0	1.0045115646399163	-0.8020660938445241	0.0	0.9756724448445759	-0.7902691365860758	0.0	0.9914897237667406	-0.5747203485672093	0.0	0.9897026456319924	-0.675630849689502	0.0	0.9808660957646753	-0.7690371077797022	0.0	1.007991974531257	-0.7933500338554389	0.0	1.0041956251848512	-0.7919733051523393	0.0	0.970512876004612	-0.7833973689029353	0.0	1.023167657518	-0.44654741687280847	0.0	1.0446417525143608	-0.3881854755544916	0.0	1.0541279196225792	-0.4207461077872264	0.0	1.018426473579211	-0.4580766182023353	0.0	0.995637818099784	-0.5112607880419728	0.0	0.9827138408097532	-0.5668997512485614	0.0	1.0148144526383789	-0.45779118405061586	0.0	0.9938914645144966	-0.5075352319484827	0.0	0.9854089401214993	-0.5633365095375018	0.0
9	0.3018867924528301	0.9915029244763511	-0.5709738208942946	0.0	0.9932653791725372	-0.5702524998255842	0.0	0.990537088702787	-0.6721196650794726	0.0	0.9840081401658086	-0.770101108350612	0.0	1.0138276198790468	-0.7964515168592007	0.0	1.0050467151725704	-0.7989810609720195	0.0	0.9772410329228214	-0.7859229137100097	0.0	0.989638938192551	-0.5688761142609358	0.0	0.9896866264288526	-0.670825105178656	0.0	0.9816711223395693	-0.7649915655345957	0.0	1.008056462135225	-0.7893592268451812	0.0	1.0050494859951127	-0.787865365942028	0.0	0.9713819899941833	-0.7795304928974612	0.0	1.025079574456727	-0.4429266940124392	0.0	1.0484365689299693	-0.3848597808947069	0.0	1.0567562279364502	-0.4172961542481325	0.0	1.020611028274279	-0.45356898249962346	0.0	0.9893785562700707	-0.501819146929266	0.0	0.9681572043046228	-0.5532519586246826	0.0	1.0161032519120532	-0.452819871712368	0.0	0.9887093074192768	-0.4970602662538024	0.0	0.9725698280410913	-0.5500196830825168	0.0
10	0.3354297693920335	0.9888466238302119	-0.5647016368070142	0.0	0.9901799725946243	-0.5639536209727593	0.0	0.9903544873416185	-0.66715672863647	0.0	0.9852992416089564	-0.7653583067492085	0.0	1.0143255554340607	-0.7921072285664107	0.0	1.0057669760119403	-0.7949226793335424	0.0	0.9782142888783858	-0.780695260445281	0.0	0.9866050380419158	-0.562236045600228	0.0	0.9894901635866952	-0.6650617145553115	0.0	0.9822619269509053	-0.7604567944025112	0.0	1.0082077925254134	-0.7844256687853942	0.0	1.0057859427998785	-0.7827462036679261	0.0	0.9719098480729275	-0.7751282764567097	0.0	1.0269130232157946	-0.43899821689724006	0.0	1.0519085969184425	-0.3814208878812802	0.0	1.0594996426477037	-0.4137932394362972	0.0	1.0229632967331312	-0.44885432595297187	0.0	0.9844029220906398	-0.4920331691116184	0.0	0.956178573696983	-0.5384221100747111	0.0	1.0171148945710127	-0.44770253305437935	0.0	0.9843565023914317	-0.4865079515882351	0.0	0.961542453797007	-0.5352670205797357	0.0
